<?xml version="1.0" encoding="UTF-8" standalone="no"?>
<!-- Created with Inkscape (http://www.inkscape.org/) -->

<svg
   xmlns:dc="http://purl.org/dc/elements/1.1/"
   xmlns:cc="http://creativecommons.org/ns#"
   xmlns:rdf="http://www.w3.org/1999/02/22-rdf-syntax-ns#"
   xmlns:svg="http://www.w3.org/2000/svg"
   xmlns="http://www.w3.org/2000/svg"
   xmlns:sodipodi="http://sodipodi.sourceforge.net/DTD/sodipodi-0.dtd"
   xmlns:inkscape="http://www.inkscape.org/namespaces/inkscape"
   width="256"
   height="256"
   viewBox="0 0 256 256"
   id="svg4712"
   version="1.1"
   inkscape:version="0.91 r13725"
   sodipodi:docname="bclextensions.net-256.svg"
   inkscape:export-filename="C:\Users\Mark\OneDrive\logos\bclextensions.net-256.png"
   inkscape:export-xdpi="90"
   inkscape:export-ydpi="90">
  <defs
     id="defs4714">
    <inkscape:perspective
       sodipodi:type="inkscape:persp3d"
       inkscape:vp_x="0 : 128 : 1"
       inkscape:vp_y="0 : 1000 : 0"
       inkscape:vp_z="256 : 128 : 1"
       inkscape:persp3d-origin="128 : 85.333333 : 1"
       id="perspective5315" />
  </defs>
  <sodipodi:namedview
     id="base"
     pagecolor="#ffffff"
     bordercolor="#666666"
     borderopacity="1.0"
     inkscape:pageopacity="0.0"
     inkscape:pageshadow="2"
     inkscape:zoom="2"
     inkscape:cx="133.08728"
     inkscape:cy="162.74105"
     inkscape:document-units="px"
     inkscape:current-layer="layer1"
     showgrid="false"
     units="px"
     showguides="true"
     inkscape:guide-bbox="true"
     inkscape:window-width="1680"
     inkscape:window-height="987"
     inkscape:window-x="-8"
     inkscape:window-y="-8"
     inkscape:window-maximized="1">
    <sodipodi:guide
       position="127.98633,204.70741"
       orientation="1,0"
       id="guide5380" />
  </sodipodi:namedview>
  <metadata
     id="metadata4717">
    <rdf:RDF>
      <cc:Work
         rdf:about="">
        <dc:format>image/svg+xml</dc:format>
        <dc:type
           rdf:resource="http://purl.org/dc/dcmitype/StillImage" />
        <dc:title />
      </cc:Work>
    </rdf:RDF>
  </metadata>
  <g
     inkscape:label="Layer 1"
     inkscape:groupmode="layer"
     id="layer1"
     transform="translate(0,-796.36219)">
    <g
       id="g5344"
       transform="matrix(0.99802308,0,0,1.0991146,-0.55397139,-93.828228)">
      <path
         sodipodi:nodetypes="ccccccc"
         inkscape:connector-curvature="0"
         id="path5264"
         d="m 128.04738,878.30466 50.12763,36.41986 c 13.00183,12.24593 13.3152,14.64848 26.24716,33.63762 -9.17348,28.23308 -18.86713,58.06706 -26.80587,82.49996 l -99.137846,0 -30.635276,-94.28567 z"
         inkscape:transform-center-y="-7.240115"
         style="fill:#ffffff;fill-opacity:1;stroke:#1172a8;stroke-width:7.69999981;stroke-linecap:round;stroke-linejoin:round;stroke-miterlimit:4;stroke-dasharray:none;stroke-opacity:1"
         transform="matrix(1.1569612,0,0,0.89906333,-19.392204,103.99163)" />
      <path
         style="fill:#1172a8;fill-opacity:1;stroke:#1172a8;stroke-width:7.69999981;stroke-linecap:butt;stroke-linejoin:miter;stroke-miterlimit:4;stroke-dasharray:none;stroke-opacity:1"
         d="m 189.37525,926.89838 c 5.69398,22.70513 5.71689,23.73359 29.19429,30.76155"
         id="path3821"
         inkscape:connector-curvature="0"
         sodipodi:nodetypes="cc" />
    </g>
    <path
       style="fill:none;fill-opacity:1;stroke:#5ebcd7;stroke-width:8.06499958;stroke-linecap:round;stroke-linejoin:round;stroke-miterlimit:4;stroke-dasharray:16.12999916, 16.12999916000000100;stroke-dashoffset:5.64549971;stroke-opacity:1"
       inkscape:transform-center-y="-7.9577041"
       d="m 128.46778,871.37041 92.60971,57.58263 C 220.42642,823.14778 220.81925,814.8708 128.68247,815.37869 37.045186,815.88384 37.737359,823.82851 35.858066,928.95303 Z"
       id="path5264-9"
       inkscape:connector-curvature="0"
       sodipodi:nodetypes="ccscc" />
    <g
       transform="translate(-1.8084709,787.73453)"
       id="text3065"
       style="font-style:normal;font-variant:normal;font-weight:normal;font-stretch:normal;font-size:52.79999924px;line-height:125%;font-family:'Quartz MS';-inkscape-font-specification:'Quartz MS';letter-spacing:0px;word-spacing:0px;fill:#1172a8;fill-opacity:1;stroke:none">
      <path
         inkscape:connector-curvature="0"
         id="path4041"
         d="m 73.898047,193.04876 3.171094,-3.17109 3.171093,3.17109 0,3.19688 -3.171093,3.17109 -3.171094,-3.17109 z"
         style="fill:#1172a8;fill-opacity:1" />
      <path
         inkscape:connector-curvature="0"
         id="path4043"
         d="m 112.02852,163.14251 -5.54297,5.54297 -11.034378,0 -5.542969,-5.54297 z m 1.21171,36.01641 -5.54296,-5.54297 0,-8.22422 2.65546,-2.65547 2.8875,0 z m -24.595308,-16.42266 2.8875,0 2.655468,2.65547 0,8.22422 -5.542968,5.54297 z m 0,-18.30469 5.542968,5.54297 0,7.91485 -2.707031,2.68125 -2.835937,0 z m 24.595308,16.13907 -2.83593,0 -2.70703,-2.68125 0,-7.91485 5.54296,-5.54297 z"
         style="fill:#1172a8;fill-opacity:1" />
      <path
         inkscape:connector-curvature="0"
         id="path4045"
         d="m 123.01133,200.11282 5.54297,-5.54297 11.03437,0 5.54297,5.54297 z m 22.12031,-36.97031 -5.54297,5.54297 -11.03437,0 -5.54297,-5.54297 z m -23.38359,19.59375 2.8875,0 2.65546,2.65547 0,8.22422 -5.54296,5.54297 z m 0,-18.30469 5.54296,5.54297 0,7.91485 -2.70703,2.68125 -2.83593,0 z m 17.42812,14.46329 2.78437,2.78437 -2.73281,2.75859 -10.3125,0 -2.73281,-2.75859 2.78438,-2.78437 z"
         style="fill:#1172a8;fill-opacity:1" />
      <path
         inkscape:connector-curvature="0"
         id="path4047"
         d="m 164.51914,163.14251 0,2.81016 -2.73282,2.73281 -6.83203,0 -5.54296,-5.54297 z m 17.58281,0 -5.54297,5.54297 -6.80625,0 -2.75859,-2.73281 0,-2.81016 z m -13.6125,14.74688 -2.81016,2.73281 -2.73281,-2.73281 0,-7.91485 2.78438,-2.81015 2.75859,2.81015 z m 0,19.41328 -2.75859,2.81015 -2.78438,-2.81015 0,-11.91094 2.78438,-2.81016 2.75859,2.81016 z"
         style="fill:#1172a8;fill-opacity:1" />
    </g>
    <text
       xml:space="preserve"
       style="font-style:normal;font-weight:normal;font-size:40px;line-height:125%;font-family:sans-serif;letter-spacing:0px;word-spacing:0px;fill:#000000;fill-opacity:1;stroke:none;stroke-width:1px;stroke-linecap:butt;stroke-linejoin:miter;stroke-opacity:1"
       x="101.69153"
       y="840.36218"
       id="text5317"
       sodipodi:linespacing="125%"><tspan
         sodipodi:role="line"
         id="tspan5319"
         x="101.69153"
         y="840.36218" /></text>
    <g
       id="g5393">
      <path
         sodipodi:nodetypes="ccc"
         inkscape:connector-curvature="0"
         id="path5363"
         d="m 81.582447,885.66177 31.024313,-19.62221 62.04862,-39.24443"
         style="fill:none;fill-rule:evenodd;stroke:#1172a8;stroke-width:7.69999981;stroke-linecap:round;stroke-linejoin:round;stroke-miterlimit:4;stroke-dasharray:none;stroke-opacity:1" />
      <path
         sodipodi:nodetypes="ccc"
         inkscape:connector-curvature="0"
         id="path5363-7"
         d="M 173.85989,885.30822 142.83557,865.68601 80.786947,826.44158"
         style="fill:none;fill-rule:evenodd;stroke:#1172a8;stroke-width:7.69999981;stroke-linecap:round;stroke-linejoin:round;stroke-miterlimit:4;stroke-dasharray:none;stroke-opacity:1" />
    </g>
  </g>
</svg>
