<?xml version="1.0" encoding="UTF-8" standalone="no"?>
<!-- Created with Inkscape (http://www.inkscape.org/) -->

<svg
   xmlns:dc="http://purl.org/dc/elements/1.1/"
   xmlns:cc="http://creativecommons.org/ns#"
   xmlns:rdf="http://www.w3.org/1999/02/22-rdf-syntax-ns#"
   xmlns:svg="http://www.w3.org/2000/svg"
   xmlns="http://www.w3.org/2000/svg"
   xmlns:sodipodi="http://sodipodi.sourceforge.net/DTD/sodipodi-0.dtd"
   xmlns:inkscape="http://www.inkscape.org/namespaces/inkscape"
   id="svg2985"
   version="1.1"
   inkscape:version="0.91 r13725"
   width="256"
   height="256"
   sodipodi:docname="coverallsNet-256.svg"
   inkscape:export-filename="C:\Users\Mark\OneDrive\logos\coverallsNet-256.png"
   inkscape:export-xdpi="90"
   inkscape:export-ydpi="90">
  <metadata
     id="metadata2991">
    <rdf:RDF>
      <cc:Work
         rdf:about="">
        <dc:format>image/svg+xml</dc:format>
        <dc:type
           rdf:resource="http://purl.org/dc/dcmitype/StillImage" />
        <dc:title />
      </cc:Work>
    </rdf:RDF>
  </metadata>
  <defs
     id="defs2989">
    <inkscape:perspective
       sodipodi:type="inkscape:persp3d"
       inkscape:vp_x="-519.47785 : 452.82142 : 1"
       inkscape:vp_y="0 : 688.29171 : 0"
       inkscape:vp_z="9300.3169 : 1564.5099 : 1"
       inkscape:persp3d-origin="4621.262 : 990.93355 : 1"
       id="perspective2995" />
  </defs>
  <sodipodi:namedview
     pagecolor="#ffffff"
     bordercolor="#666666"
     borderopacity="1"
     objecttolerance="10"
     gridtolerance="10"
     guidetolerance="10"
     inkscape:pageopacity="0"
     inkscape:pageshadow="2"
     inkscape:window-width="1680"
     inkscape:window-height="987"
     id="namedview2987"
     showgrid="false"
     inkscape:zoom="1.4142136"
     inkscape:cx="195.83566"
     inkscape:cy="141.00392"
     inkscape:window-x="-8"
     inkscape:window-y="-8"
     inkscape:window-maximized="1"
     inkscape:current-layer="svg2985"
     fit-margin-top="30"
     fit-margin-left="60"
     fit-margin-right="60"
     fit-margin-bottom="30"
     showguides="true"
     inkscape:guide-bbox="true" />
  <g
     style="font-style:normal;font-variant:normal;font-weight:normal;font-stretch:normal;font-size:52.79999924px;line-height:125%;font-family:'Quartz MS';-inkscape-font-specification:'Quartz MS';letter-spacing:0px;word-spacing:0px;fill:#2d404b;fill-opacity:1;stroke:none"
     id="text3065">
    <path
       inkscape:connector-curvature="0"
       d="m 73.898047,193.04876 3.171094,-3.17109 3.171093,3.17109 0,3.19688 -3.171093,3.17109 -3.171094,-3.17109 z"
       id="path4041" />
    <path
       inkscape:connector-curvature="0"
       d="m 112.02852,163.14251 -5.54297,5.54297 -11.034378,0 -5.542969,-5.54297 z m 1.21171,36.01641 -5.54296,-5.54297 0,-8.22422 2.65546,-2.65547 2.8875,0 z m -24.595308,-16.42266 2.8875,0 2.655468,2.65547 0,8.22422 -5.542968,5.54297 z m 0,-18.30469 5.542968,5.54297 0,7.91485 -2.707031,2.68125 -2.835937,0 z m 24.595308,16.13907 -2.83593,0 -2.70703,-2.68125 0,-7.91485 5.54296,-5.54297 z"
       id="path4043" />
    <path
       inkscape:connector-curvature="0"
       d="m 123.01133,200.11282 5.54297,-5.54297 11.03437,0 5.54297,5.54297 z m 22.12031,-36.97031 -5.54297,5.54297 -11.03437,0 -5.54297,-5.54297 z m -23.38359,19.59375 2.8875,0 2.65546,2.65547 0,8.22422 -5.54296,5.54297 z m 0,-18.30469 5.54296,5.54297 0,7.91485 -2.70703,2.68125 -2.83593,0 z m 17.42812,14.46329 2.78437,2.78437 -2.73281,2.75859 -10.3125,0 -2.73281,-2.75859 2.78438,-2.78437 z"
       id="path4045" />
    <path
       inkscape:connector-curvature="0"
       d="m 164.51914,163.14251 0,2.81016 -2.73282,2.73281 -6.83203,0 -5.54296,-5.54297 z m 17.58281,0 -5.54297,5.54297 -6.80625,0 -2.75859,-2.73281 0,-2.81016 z m -13.6125,14.74688 -2.81016,2.73281 -2.73281,-2.73281 0,-7.91485 2.78438,-2.81015 2.75859,2.81015 z m 0,19.41328 -2.75859,2.81015 -2.78438,-2.81015 0,-11.91094 2.78438,-2.81016 2.75859,2.81016 z"
       id="path4047" />
  </g>
  <g
     id="g5391">
    <g
       id="g4018">
      <path
         style="fill:#ffffff;fill-opacity:1;stroke:#2d404b;stroke-width:7.69999981;stroke-linecap:round;stroke-linejoin:round;stroke-miterlimit:4;stroke-dashoffset:250;stroke-opacity:1"
         d="m 222.50172,195.40919 c -2.98355,7.23286 -47.41942,-56.84271 -55.24333,-56.79474 -8.40535,0.0515 -71.0075,-1.0364 -78.240347,0.1145 -7.726836,1.22951 -52.400543,64.18077 -55.405259,56.95669 -3.004705,-7.22409 -3.098051,-71.00752 -0.114499,-78.24036 2.983552,-7.23285 48.019237,-52.40054 55.243318,-55.405256 3.612042,-1.502358 43.363917,-0.276879 61.116897,-0.30285 5.00598,0.871717 36.14984,17.042556 40.41164,20.219796 12.57162,12.53488 30.61472,31.59982 32.11708,35.21187 3.0047,7.22408 3.09805,71.0075 0.1145,78.24035 z"
         id="path3113"
         inkscape:connector-curvature="0"
         sodipodi:nodetypes="ssssssccss" />
      <path
         style="fill:#2d404b;fill-opacity:1;stroke:#2d404b;stroke-width:7.69999981;stroke-linecap:butt;stroke-linejoin:miter;stroke-miterlimit:4;stroke-dasharray:none;stroke-opacity:1"
         d="m 150.09634,61.344199 c 11.79688,20.218261 14.53751,19.712796 39.04339,19.918427"
         id="path3821"
         inkscape:connector-curvature="0"
         sodipodi:nodetypes="cc" />
    </g>
    <path
       inkscape:transform-center-y="-2.7764693"
       inkscape:transform-center-x="-0.23653893"
       d="m 146.27408,128.21118 -18.35584,-12.87371 -18.45016,12.73815 6.57136,-21.43563 -17.816113,-13.610848 22.417163,-0.374235 7.4392,-21.150117 7.2832,21.204342 22.41379,0.539353 -17.91589,13.479235 z"
       inkscape:randomized="0"
       inkscape:rounded="0"
       inkscape:flatsided="false"
       sodipodi:arg2="1.5744795"
       sodipodi:arg1="0.94616092"
       sodipodi:r2="12.523707"
       sodipodi:r1="31.309266"
       sodipodi:cy="102.81384"
       sodipodi:cx="127.96437"
       sodipodi:sides="5"
       id="path3894"
       style="fill:#2d404b;fill-opacity:1;fill-rule:nonzero;stroke:none"
       sodipodi:type="star" />
    <path
       sodipodi:nodetypes="cc"
       inkscape:connector-curvature="0"
       id="path3877"
       d="m 88.716356,62.168291 0.03954,74.211009"
       style="fill:none;stroke:#2d404b;stroke-width:7.69999981;stroke-linecap:round;stroke-linejoin:round;stroke-miterlimit:4;stroke-dasharray:7.7, 15.4;stroke-dashoffset:0;stroke-opacity:0.50196078;marker-start:none;marker-end:none" />
    <path
       sodipodi:nodetypes="cc"
       inkscape:connector-curvature="0"
       id="path3877-9"
       d="m 166.5889,78.094617 0.0395,59.062173"
       style="fill:none;stroke:#2d404b;stroke-width:7.69999981;stroke-linecap:round;stroke-linejoin:round;stroke-miterlimit:4;stroke-dasharray:7.7, 15.4;stroke-dashoffset:16.17000008;stroke-opacity:0.50196078;marker-start:none;marker-end:none" />
  </g>
</svg>
