<?xml version="1.0" encoding="UTF-8" standalone="no"?>
<!-- Created with Inkscape (http://www.inkscape.org/) -->

<svg
   xmlns:dc="http://purl.org/dc/elements/1.1/"
   xmlns:cc="http://creativecommons.org/ns#"
   xmlns:rdf="http://www.w3.org/1999/02/22-rdf-syntax-ns#"
   xmlns:svg="http://www.w3.org/2000/svg"
   xmlns="http://www.w3.org/2000/svg"
   xmlns:sodipodi="http://sodipodi.sourceforge.net/DTD/sodipodi-0.dtd"
   xmlns:inkscape="http://www.inkscape.org/namespaces/inkscape"
   width="256"
   height="256"
   viewBox="0 0 256 256"
   id="svg3393"
   version="1.1"
   inkscape:version="0.91 r13725"
   sodipodi:docname="PublishCoverity-256.svg"
   inkscape:export-filename="C:\Users\Mark\OneDrive\logos\PublishCoverity-256.png"
   inkscape:export-xdpi="90"
   inkscape:export-ydpi="90">
  <defs
     id="defs3395" />
  <sodipodi:namedview
     id="base"
     pagecolor="#ffffff"
     bordercolor="#666666"
     borderopacity="1.0"
     inkscape:pageopacity="0.0"
     inkscape:pageshadow="2"
     inkscape:zoom="1.4142136"
     inkscape:cx="-62.817367"
     inkscape:cy="65.540801"
     inkscape:document-units="px"
     inkscape:current-layer="layer1"
     showgrid="false"
     units="px"
     showborder="true"
     showguides="false"
     inkscape:window-width="1680"
     inkscape:window-height="987"
     inkscape:window-x="-8"
     inkscape:window-y="-8"
     inkscape:window-maximized="1" />
  <metadata
     id="metadata3398">
    <rdf:RDF>
      <cc:Work
         rdf:about="">
        <dc:format>image/svg+xml</dc:format>
        <dc:type
           rdf:resource="http://purl.org/dc/dcmitype/StillImage" />
        <dc:title />
      </cc:Work>
    </rdf:RDF>
  </metadata>
  <g
     inkscape:label="Layer 1"
     inkscape:groupmode="layer"
     id="layer1"
     transform="translate(0,-796.36219)">
    <path
       style="fill:#ffffff;fill-rule:evenodd;stroke:#040707;stroke-width:7.5;stroke-linecap:round;stroke-linejoin:round;stroke-miterlimit:4;stroke-dasharray:none;stroke-opacity:1;fill-opacity:1"
       inkscape:transform-center-x="2.6615866"
       inkscape:transform-center-y="-1.3486805"
       d="m 191.71194,843.0569 14.93525,18.98918 29.8705,37.97837 -22.13747,94.06566 -87.34598,41.34119 -86.781176,-42.514 -20.868385,-94.35532 60.758731,-75.14513 48.31664,30.32543 24.15832,-14.83729 c 39.09357,4.15191 0,0 39.09357,4.15191 z"
       id="path3401"
       inkscape:connector-curvature="0"
       sodipodi:nodetypes="ccccccccccc" />
    <g
       transform="matrix(2.4963319,0,0,2.4963319,96.091784,862.3805)"
       id="g4801">
      <path
         inkscape:connector-curvature="0"
         style="fill:#040707;fill-opacity:1;fill-rule:nonzero;stroke:none"
         id="path2868"
         d="m 2.6938634,11.00675 -0.35125,-0.945 3.795,7.0875 0.085,0 4.7312496,-11.81 c 0.08375,-0.25625 0.82625,-2.17375 0.85125,-3.02 0.0625,-2.1825 -1.40875,-2.38 -2.9762496,-1.9375 -5.1425,1.665 -8.8525,6.50125 -8.82875,12.195 0.02125,5.295 3.26375,9.82125 7.86375,11.735 l -5.17,-13.305" />
      <path
         inkscape:connector-curvature="0"
         style="fill:#040707;fill-opacity:1;fill-rule:nonzero;stroke:none"
         id="path2880"
         d="m 17.428613,0.64863 c -0.63125,1.27125 -1.31,2.6375 -2.1675,4.8075 l -7.34125,18.87875 c 1.50875,0.61875 3.1625,0.96 4.895,0.95125 7.04875,-0.02625 12.73875,-5.765 12.71,-12.815 -0.0225,-5.38125 -3.375,-9.9675 -8.09625,-11.8225" />
    </g>
    <path
       style="fill:#040707;fill-opacity:1;stroke-width:7.5;stroke-linecap:round;stroke-linejoin:round;stroke-miterlimit:4;stroke-dasharray:none"
       d="m 127.9463,935.15864 -37.251951,16.58971 27.775391,-10e-4 0,18.65988 20.5332,0 0,-18.65988 26.20508,-10e-4 z"
       id="path4839"
       inkscape:connector-curvature="0"
       sodipodi:nodetypes="cccccccc" />
    <rect
       style="fill:#040707;fill-opacity:1;stroke-width:7.5;stroke-linecap:round;stroke-linejoin:round;stroke-miterlimit:4;stroke-dasharray:none"
       id="rect4843"
       width="112.8525"
       height="12.299775"
       x="71.524933"
       y="980.06238" />
    <path
       sodipodi:nodetypes="cc"
       inkscape:connector-curvature="0"
       id="path3821"
       d="m 152.90223,838.93711 c 17.73139,18.61492 17.63415,18.68532 38.81283,3.89167"
       style="fill:#040707;fill-opacity:1;stroke:#040707;stroke-width:5.40157127;stroke-linecap:butt;stroke-linejoin:miter;stroke-miterlimit:4;stroke-dasharray:none;stroke-opacity:1" />
  </g>
</svg>
