<?xml version="1.0" encoding="UTF-8" standalone="no"?>
<!-- Created with Inkscape (http://www.inkscape.org/) -->

<svg
   xmlns:dc="http://purl.org/dc/elements/1.1/"
   xmlns:cc="http://creativecommons.org/ns#"
   xmlns:rdf="http://www.w3.org/1999/02/22-rdf-syntax-ns#"
   xmlns:svg="http://www.w3.org/2000/svg"
   xmlns="http://www.w3.org/2000/svg"
   xmlns:sodipodi="http://sodipodi.sourceforge.net/DTD/sodipodi-0.dtd"
   xmlns:inkscape="http://www.inkscape.org/namespaces/inkscape"
   id="svg2985"
   version="1.1"
   inkscape:version="0.91 r13725"
   width="256"
   height="256"
   sodipodi:docname="QUEBB-256.svg"
   inkscape:export-filename="C:\Users\Mark\OneDrive\logos\QUEBB-256.png"
   inkscape:export-xdpi="90"
   inkscape:export-ydpi="90">
  <metadata
     id="metadata2991">
    <rdf:RDF>
      <cc:Work
         rdf:about="">
        <dc:format>image/svg+xml</dc:format>
        <dc:type
           rdf:resource="http://purl.org/dc/dcmitype/StillImage" />
        <dc:title />
      </cc:Work>
    </rdf:RDF>
  </metadata>
  <defs
     id="defs2989">
    <inkscape:perspective
       sodipodi:type="inkscape:persp3d"
       inkscape:vp_x="-519.47785 : 452.82142 : 1"
       inkscape:vp_y="0 : 688.29171 : 0"
       inkscape:vp_z="9300.3169 : 1564.5099 : 1"
       inkscape:persp3d-origin="4621.262 : 990.93355 : 1"
       id="perspective2995" />
  </defs>
  <sodipodi:namedview
     pagecolor="#ffffff"
     bordercolor="#666666"
     borderopacity="1"
     objecttolerance="10"
     gridtolerance="10"
     guidetolerance="10"
     inkscape:pageopacity="0"
     inkscape:pageshadow="2"
     inkscape:window-width="1680"
     inkscape:window-height="987"
     id="namedview2987"
     showgrid="false"
     inkscape:zoom="1.3169157"
     inkscape:cx="132.57399"
     inkscape:cy="237.71578"
     inkscape:window-x="-8"
     inkscape:window-y="-8"
     inkscape:window-maximized="1"
     inkscape:current-layer="svg2985"
     fit-margin-top="30"
     fit-margin-left="60"
     fit-margin-right="60"
     fit-margin-bottom="30" />
  <g
     id="g4318"
     transform="translate(0.31882924,-0.49144641)">
    <g
       transform="matrix(0.06276048,0,0,0.06276048,-30.212184,-53.677911)"
       id="g4299">
      <g
         id="g4281"
         transform="translate(3.8634956e-5,-1.6875337e-5)">
        <path
           sodipodi:nodetypes="cssssccccssssc"
           inkscape:connector-curvature="0"
           id="path3043"
           d="m 2110.5769,3837.4313 c -219.3326,-13.2642 -329.7709,-31.458 -363.5659,-59.8946 -146.1287,-122.9592 -680.6048,-1060.6251 -723.464,-1269.2195 -5.6876,-27.6816 -4.6018,-36.3974 9.8515,-79.0764 75.3976,-222.6405 497.6861,-949.5414 676.4669,-1164.4273 54.3913,-65.3758 75.0383,-78.2099 144.1789,-89.6207 316.8076,-31.3017 575.0187,-34.4617 863.9524,-26.3704 80.6199,41.1905 758.007,426.7086 868.0298,500.9124 139.3877,252.5277 304.1289,503.765 406.3485,781.9108 21.6949,60.8244 23.2203,75.1571 12.1119,113.8013 -64.3652,223.9142 -569.6424,1083.2813 -721.2176,1226.6348 -28.3227,26.7864 -38.4391,32.2421 -74.9066,40.3971 -112.7591,25.2157 -303.4071,34.7113 -676.9782,33.7179 -158.7042,-0.4222 -348.0676,-4.3664 -420.8076,-8.7654 z"
           style="fill:#ffffff;stroke:#000080;stroke-width:120;stroke-linecap:round;stroke-linejoin:round;stroke-miterlimit:4;stroke-opacity:1;stroke-dasharray:none;fill-opacity:1" />
        <path
           sodipodi:nodetypes="cc"
           inkscape:connector-curvature="0"
           id="path3821"
           d="m 2712.1909,1130.3521 c 216.2632,633.513 371.222,566.7321 868.6965,534.5824"
           style="fill:#000080;fill-opacity:1;stroke:#000080;stroke-width:120;stroke-linecap:butt;stroke-linejoin:miter;stroke-miterlimit:4;stroke-opacity:1;stroke-dasharray:none" />
      </g>
      <g
         id="g4277"
         transform="translate(14.000039,15.999983)">
        <path
           inkscape:connector-curvature="0"
           id="path3877"
           d="m 1045.9073,2474.2268 1451.8901,8.5911 747.4227,1323.024"
           style="fill:none;stroke:#000080;stroke-width:100;stroke-linecap:round;stroke-linejoin:round;stroke-miterlimit:4;stroke-opacity:0.50196078;stroke-dasharray:100, 200;stroke-dashoffset:250;marker-start:none;marker-end:none" />
        <path
           inkscape:connector-curvature="0"
           id="path3879"
           d="m 2516.4477,2451.5765 564.074,-1036.5826"
           style="fill:none;stroke:#000080;stroke-width:85.75406647;stroke-linecap:round;stroke-linejoin:round;stroke-miterlimit:4;stroke-opacity:0.50196078;stroke-dasharray:85.75406233, 171.50812464;stroke-dashoffset:214.38515581;marker-start:none;marker-end:none" />
      </g>
    </g>
    <g
       transform="matrix(0.06276048,0,0,0.06276048,15.129074,8.1431534)"
       id="text3881"
       style="font-size:800px;font-style:normal;font-variant:normal;font-weight:normal;font-stretch:normal;line-height:125%;letter-spacing:0px;word-spacing:0px;fill:#000080;fill-opacity:1;stroke:none;font-family:Lindsey;-inkscape-font-specification:Lindsey">
      <path
         inkscape:connector-curvature="0"
         id="path4308"
         style="fill:#000080;font-family:Quartz MS;-inkscape-font-specification:Quartz MS"
         d="m 572.65625,3375.2319 -42.96875,0 -41.01563,-40.625 0,-119.9218 42.57813,-42.5782 41.40625,42.5782 z m -102.34375,-264.0625 41.79687,42.5782 -41.79687,41.4062 -167.1875,0 -41.40625,-41.4062 42.1875,-42.5782 z m -96.09375,476.1719 0,83.9844 -71.09375,0 -42.57813,-41.4063 42.57813,-42.5781 z m 198.4375,-14.4531 -41.40625,42.5781 -42.57813,-42.5781 0,-124.6094 40.23438,-40.2344 43.75,0 z M 200,3214.6851 l 41.40625,-42.5782 42.57812,42.5782 0,119.9218 -41.01562,40.625 -42.96875,0 z m 0,193.3593 43.75,0 40.23437,40.2344 0,124.6094 -42.57812,42.5781 L 200,3572.8882 z m 364.84375,281.6407 0,60.1562 -58.59375,0 -103.90625,-104.2969 0,-58.2031 60.15625,0 z" />
      <path
         inkscape:connector-curvature="0"
         id="path4310"
         style="fill:#000080;font-family:Quartz MS;-inkscape-font-specification:Quartz MS"
         d="m 914.0625,3130.7007 83.98437,83.9844 0,119.9218 -41.01562,40.625 -42.96875,0 z m 372.6563,244.5312 -42.9688,0 -41.0156,-40.625 0,-119.9218 83.9844,-83.9844 z m -102.3438,212.1094 42.5781,42.5781 -42.5781,41.4063 -167.1875,0 -42.57813,-41.4063 42.57813,-42.5781 z m 102.3438,-14.4531 -41.4063,42.5781 -42.5781,-42.5781 0,-124.6094 40.2344,-40.2344 43.75,0 z m -372.6563,-164.8438 43.75,0 40.23437,40.2344 0,124.6094 -42.57812,42.5781 -41.40625,-42.5781 z" />
      <path
         inkscape:connector-curvature="0"
         id="path4312"
         style="fill:#000080;font-family:Quartz MS;-inkscape-font-specification:Quartz MS"
         d="m 1647.2656,3671.3257 83.9844,-83.9844 167.1875,0 83.9844,83.9844 z m 335.1563,-560.1563 -83.9844,83.9844 -167.1875,0 -83.9844,-83.9844 z m -354.2969,296.875 43.75,0 40.2344,40.2344 0,124.6094 -83.9844,83.9844 z m 0,-277.3437 83.9844,83.9844 0,119.9218 -41.0156,40.625 -42.9688,0 z m 264.0625,219.1406 42.1875,42.1875 -41.4062,41.7969 -156.25,0 -41.4063,-41.7969 42.1875,-42.1875 z" />
      <path
         inkscape:connector-curvature="0"
         id="path4314"
         style="fill:#000080;font-family:Quartz MS;-inkscape-font-specification:Quartz MS"
         d="m 2300,3408.0444 43.75,0 40.2344,40.2344 0,124.6094 -83.9844,83.9844 z m 372.6563,-73.4375 -41.4063,42.1875 -42.5781,-42.1875 0,-119.9218 42.5781,-42.5782 41.4063,42.5782 z m -108.5938,15.2344 42.1875,42.1875 -41.4062,41.7969 -156.25,0 -41.4063,-41.7969 42.1875,-42.1875 z m 6.25,-238.6719 41.7969,42.5782 -41.7969,41.4062 -167.1875,0 -83.9844,-83.9844 z m -251.1719,560.1563 83.9844,-83.9844 167.1875,0 43.3594,43.3594 -43.3594,40.625 z m 353.5157,-98.4375 -41.4063,42.5781 -42.5781,-42.5781 0,-124.6094 42.5781,-42.5781 41.4063,42.5781 z M 2300,3130.7007 l 83.9844,83.9844 0,119.9218 -41.0156,40.625 -42.9688,0 z" />
      <path
         inkscape:connector-curvature="0"
         id="path4316"
         style="fill:#000080;font-family:Quartz MS;-inkscape-font-specification:Quartz MS"
         d="m 3014.0625,3408.0444 43.75,0 40.2344,40.2344 0,124.6094 -83.9844,83.9844 z m 372.6563,-73.4375 -41.4063,42.1875 -42.5781,-42.1875 0,-119.9218 42.5781,-42.5782 41.4063,42.5782 z m -108.5938,15.2344 42.1875,42.1875 -41.4062,41.7969 -156.25,0 -41.4063,-41.7969 42.1875,-42.1875 z m 6.25,-238.6719 41.7969,42.5782 -41.7969,41.4062 -167.1875,0 -83.9844,-83.9844 z m -251.1719,560.1563 83.9844,-83.9844 167.1875,0 43.3594,43.3594 -43.3594,40.625 z m 353.5157,-98.4375 -41.4063,42.5781 -42.5781,-42.5781 0,-124.6094 42.5781,-42.5781 41.4063,42.5781 z m -372.6563,-442.1875 83.9844,83.9844 0,119.9218 -41.0156,40.625 -42.9688,0 z" />
    </g>
  </g>
</svg>
